<svg width="100" height="100" viewBox="0 0 100 100" fill="none" xmlns="http://www.w3.org/2000/svg">
<rect width="100" height="100" rx="20" fill="#F5F5F5"/>
<g clip-path="url(#clip0_1454_62105)">
<path d="M64.5375 31.175C64.3375 31.175 64.1375 31.125 63.9625 31.025C59.1625 28.55 55.0125 27.5 50.0375 27.5C45.0875 27.5 40.3875 28.675 36.1125 31.025C35.5125 31.35 34.7625 31.125 34.4125 30.525C34.0875 29.925 34.3125 29.15 34.9125 28.825C39.5625 26.3 44.6625 25 50.0375 25C55.3625 25 60.0125 26.175 65.1125 28.8C65.7375 29.125 65.9625 29.875 65.6375 30.475C65.4125 30.925 64.9875 31.175 64.5375 31.175ZM28.7625 44.3C28.5125 44.3 28.2625 44.225 28.0375 44.075C27.4625 43.675 27.3375 42.9 27.7375 42.325C30.2125 38.825 33.3625 36.075 37.1125 34.15C44.9625 30.1 55.0125 30.075 62.8875 34.125C66.6375 36.05 69.7875 38.775 72.2625 42.25C72.6625 42.8 72.5375 43.6 71.9625 44C71.3875 44.4 70.6125 44.275 70.2125 43.7C67.9625 40.55 65.1125 38.075 61.7375 36.35C54.5625 32.675 45.3875 32.675 38.2375 36.375C34.8375 38.125 31.9875 40.625 29.7375 43.775C29.5375 44.125 29.1625 44.3 28.7625 44.3ZM44.3875 74.475C44.0625 74.475 43.7375 74.35 43.5125 74.1C41.3375 71.925 40.1625 70.525 38.4875 67.5C36.7625 64.425 35.8625 60.675 35.8625 56.65C35.8625 49.225 42.2125 43.175 50.0125 43.175C57.8125 43.175 64.1625 49.225 64.1625 56.65C64.1625 57.35 63.6125 57.9 62.9125 57.9C62.2125 57.9 61.6625 57.35 61.6625 56.65C61.6625 50.6 56.4375 45.675 50.0125 45.675C43.5875 45.675 38.3625 50.6 38.3625 56.65C38.3625 60.25 39.1625 63.575 40.6875 66.275C42.2875 69.15 43.3875 70.375 45.3125 72.325C45.7875 72.825 45.7875 73.6 45.3125 74.1C45.0375 74.35 44.7125 74.475 44.3875 74.475ZM62.3125 69.85C59.3375 69.85 56.7125 69.1 54.5625 67.625C50.8375 65.1 48.6125 61 48.6125 56.65C48.6125 55.95 49.1625 55.4 49.8625 55.4C50.5625 55.4 51.1125 55.95 51.1125 56.65C51.1125 60.175 52.9125 63.5 55.9625 65.55C57.7375 66.75 59.8125 67.325 62.3125 67.325C62.9125 67.325 63.9125 67.25 64.9125 67.075C65.5875 66.95 66.2375 67.4 66.3625 68.1C66.4875 68.775 66.0375 69.425 65.3375 69.55C63.9125 69.825 62.6625 69.85 62.3125 69.85ZM57.2875 75C57.1875 75 57.0625 74.975 56.9625 74.95C52.9875 73.85 50.3875 72.375 47.6625 69.7C44.1625 66.225 42.2375 61.6 42.2375 56.65C42.2375 52.6 45.6875 49.3 49.9375 49.3C54.1875 49.3 57.6375 52.6 57.6375 56.65C57.6375 59.325 59.9625 61.5 62.8375 61.5C65.7125 61.5 68.0375 59.325 68.0375 56.65C68.0375 47.225 59.9125 39.575 49.9125 39.575C42.8125 39.575 36.3125 43.525 33.3875 49.65C32.4125 51.675 31.9125 54.05 31.9125 56.65C31.9125 58.6 32.0875 61.675 33.5875 65.675C33.8375 66.325 33.5125 67.05 32.8625 67.275C32.2125 67.525 31.4875 67.175 31.2625 66.55C30.0375 63.275 29.4375 60.025 29.4375 56.65C29.4375 53.65 30.0125 50.925 31.1375 48.55C34.4625 41.575 41.8375 37.05 49.9125 37.05C61.2875 37.05 70.5375 45.825 70.5375 56.625C70.5375 60.675 67.0875 63.975 62.8375 63.975C58.5875 63.975 55.1375 60.675 55.1375 56.625C55.1375 53.95 52.8125 51.775 49.9375 51.775C47.0625 51.775 44.7375 53.95 44.7375 56.625C44.7375 60.9 46.3875 64.9 49.4125 67.9C51.7875 70.25 54.0625 71.55 57.5875 72.525C58.2625 72.7 58.6375 73.4 58.4625 74.05C58.3375 74.625 57.8125 75 57.2875 75Z" fill="#2569F2"/>
</g>
<mask id="mask0_1454_62105" style="mask-type:alpha" maskUnits="userSpaceOnUse" x="20" y="20" width="60" height="60">
<path d="M64.5375 31.175C64.3375 31.175 64.1375 31.125 63.9625 31.025C59.1625 28.55 55.0125 27.5 50.0375 27.5C45.0875 27.5 40.3875 28.675 36.1125 31.025C35.5125 31.35 34.7625 31.125 34.4125 30.525C34.0875 29.925 34.3125 29.15 34.9125 28.825C39.5625 26.3 44.6625 25 50.0375 25C55.3625 25 60.0125 26.175 65.1125 28.8C65.7375 29.125 65.9625 29.875 65.6375 30.475C65.4125 30.925 64.9875 31.175 64.5375 31.175ZM28.7625 44.3C28.5125 44.3 28.2625 44.225 28.0375 44.075C27.4625 43.675 27.3375 42.9 27.7375 42.325C30.2125 38.825 33.3625 36.075 37.1125 34.15C44.9625 30.1 55.0125 30.075 62.8875 34.125C66.6375 36.05 69.7875 38.775 72.2625 42.25C72.6625 42.8 72.5375 43.6 71.9625 44C71.3875 44.4 70.6125 44.275 70.2125 43.7C67.9625 40.55 65.1125 38.075 61.7375 36.35C54.5625 32.675 45.3875 32.675 38.2375 36.375C34.8375 38.125 31.9875 40.625 29.7375 43.775C29.5375 44.125 29.1625 44.3 28.7625 44.3ZM44.3875 74.475C44.0625 74.475 43.7375 74.35 43.5125 74.1C41.3375 71.925 40.1625 70.525 38.4875 67.5C36.7625 64.425 35.8625 60.675 35.8625 56.65C35.8625 49.225 42.2125 43.175 50.0125 43.175C57.8125 43.175 64.1625 49.225 64.1625 56.65C64.1625 57.35 63.6125 57.9 62.9125 57.9C62.2125 57.9 61.6625 57.35 61.6625 56.65C61.6625 50.6 56.4375 45.675 50.0125 45.675C43.5875 45.675 38.3625 50.6 38.3625 56.65C38.3625 60.25 39.1625 63.575 40.6875 66.275C42.2875 69.15 43.3875 70.375 45.3125 72.325C45.7875 72.825 45.7875 73.6 45.3125 74.1C45.0375 74.35 44.7125 74.475 44.3875 74.475ZM62.3125 69.85C59.3375 69.85 56.7125 69.1 54.5625 67.625C50.8375 65.1 48.6125 61 48.6125 56.65C48.6125 55.95 49.1625 55.4 49.8625 55.4C50.5625 55.4 51.1125 55.95 51.1125 56.65C51.1125 60.175 52.9125 63.5 55.9625 65.55C57.7375 66.75 59.8125 67.325 62.3125 67.325C62.9125 67.325 63.9125 67.25 64.9125 67.075C65.5875 66.95 66.2375 67.4 66.3625 68.1C66.4875 68.775 66.0375 69.425 65.3375 69.55C63.9125 69.825 62.6625 69.85 62.3125 69.85ZM57.2875 75C57.1875 75 57.0625 74.975 56.9625 74.95C52.9875 73.85 50.3875 72.375 47.6625 69.7C44.1625 66.225 42.2375 61.6 42.2375 56.65C42.2375 52.6 45.6875 49.3 49.9375 49.3C54.1875 49.3 57.6375 52.6 57.6375 56.65C57.6375 59.325 59.9625 61.5 62.8375 61.5C65.7125 61.5 68.0375 59.325 68.0375 56.65C68.0375 47.225 59.9125 39.575 49.9125 39.575C42.8125 39.575 36.3125 43.525 33.3875 49.65C32.4125 51.675 31.9125 54.05 31.9125 56.65C31.9125 58.6 32.0875 61.675 33.5875 65.675C33.8375 66.325 33.5125 67.05 32.8625 67.275C32.2125 67.525 31.4875 67.175 31.2625 66.55C30.0375 63.275 29.4375 60.025 29.4375 56.65C29.4375 53.65 30.0125 50.925 31.1375 48.55C34.4625 41.575 41.8375 37.05 49.9125 37.05C61.2875 37.05 70.5375 45.825 70.5375 56.625C70.5375 60.675 67.0875 63.975 62.8375 63.975C58.5875 63.975 55.1375 60.675 55.1375 56.625C55.1375 53.95 52.8125 51.775 49.9375 51.775C47.0625 51.775 44.7375 53.95 44.7375 56.625C44.7375 60.9 46.3875 64.9 49.4125 67.9C51.7875 70.25 54.0625 71.55 57.5875 72.525C58.2625 72.7 58.6375 73.4 58.4625 74.05C58.3375 74.625 57.8125 75 57.2875 75Z" fill="#2569F2"/>
</mask>
<g mask="url(#mask0_1454_62105)">
<rect x="17" y="14" width="67" height="39" fill="#999999"/>
</g>
<defs>
<clipPath id="clip0_1454_62105">
<rect width="60" height="60" fill="white" transform="translate(20 20)"/>
</clipPath>
</defs>
</svg>
